<?xml version="1.0" encoding="UTF-8" standalone="no"?>
<svg
   xmlns:dc="http://purl.org/dc/elements/1.1/"
   xmlns:cc="http://creativecommons.org/ns#"
   xmlns:rdf="http://www.w3.org/1999/02/22-rdf-syntax-ns#"
   xmlns:svg="http://www.w3.org/2000/svg"
   xmlns="http://www.w3.org/2000/svg"
   xmlns:sodipodi="http://sodipodi.sourceforge.net/DTD/sodipodi-0.dtd"
   xmlns:inkscape="http://www.inkscape.org/namespaces/inkscape"
   enable-background="new 0 0 56.693 56.693"
   height="49.248001"
   id="Layer_1"
   version="1.1"
   viewBox="0 0 49.248 49.248"
   width="49.248001"
   xml:space="preserve"
   inkscape:version="0.91 r13725"
   sodipodi:docname="behance.svg"><metadata
     id="metadata4151"><rdf:RDF><cc:Work
         rdf:about=""><dc:format>image/svg+xml</dc:format><dc:type
           rdf:resource="http://purl.org/dc/dcmitype/StillImage" /><dc:title></dc:title></cc:Work></rdf:RDF></metadata><defs
     id="defs4149" /><sodipodi:namedview
     pagecolor="#ffffff"
     bordercolor="#666666"
     borderopacity="1"
     objecttolerance="10"
     gridtolerance="10"
     guidetolerance="10"
     inkscape:pageopacity="0"
     inkscape:pageshadow="2"
     inkscape:window-width="1536"
     inkscape:window-height="801"
     id="namedview4147"
     showgrid="false"
     fit-margin-top="0"
     fit-margin-left="0"
     fit-margin-right="0"
     fit-margin-bottom="0"
     inkscape:zoom="11.147761"
     inkscape:cx="24.6235"
     inkscape:cy="26.0025"
     inkscape:window-x="-8"
     inkscape:window-y="-8"
     inkscape:window-maximized="1"
     inkscape:current-layer="Layer_1" /><g
     id="g4137"
     transform="translate(-3.723,-5.101)"><path
       d="m 38.031,27.257 c -3.174,0 -3.615,3.168 -3.615,3.168 l 6.748,0 c 0,0 0.043,-3.168 -3.133,-3.168 z"
       id="path4139"
       inkscape:connector-curvature="0" /><path
       d="m 22.721,30.425 -5.982,0 0,5.492 5.296,0 c 0.09,0 0.225,0.002 0.383,0 0.852,-0.02 2.467,-0.268 2.467,-2.67 0,-2.851 -2.164,-2.822 -2.164,-2.822 z"
       id="path4141"
       inkscape:connector-curvature="0" /><path
       d="m 28.348,5.101 c -13.6,0 -24.625,11.023 -24.625,24.623 0,13.6 11.025,24.625 24.625,24.625 13.598,0 24.623,-11.025 24.623,-24.625 0,-13.599 -11.026,-24.623 -24.623,-24.623 z m 5.183,15.13 8.477,0 0,2.53 -8.477,0 0,-2.53 z m -4.285,13.272 c 0,6.271 -6.525,6.064 -6.525,6.064 l -5.982,0 -0.175,0 -4.535,0 0,-20.546 4.535,0 0.175,0 5.982,0 c 3.248,0 5.812,1.794 5.812,5.47 0,3.676 -3.135,3.91 -3.135,3.91 4.133,0 3.848,5.102 3.848,5.102 z m 15.858,-0.336 -10.647,0 c 0,3.816 3.615,3.576 3.615,3.576 3.414,0 3.295,-2.211 3.295,-2.211 l 3.617,0 c 0,5.867 -7.033,5.465 -7.033,5.465 -8.436,0 -7.893,-7.855 -7.893,-7.855 0,0 -0.008,-7.893 7.893,-7.893 8.317,0 7.153,8.918 7.153,8.918 z"
       id="path4143"
       inkscape:connector-curvature="0" /><path
       d="m 24.174,24.81 c 0,-2.137 -1.453,-2.137 -1.453,-2.137 l -0.77,0 -5.212,0 0,4.584 5.611,0 c 0.968,0 1.824,-0.311 1.824,-2.447 z"
       id="path4145"
       inkscape:connector-curvature="0" /></g></svg>